<svg width="567" height="337" viewBox="0 0 567 337" fill="none" xmlns="http://www.w3.org/2000/svg">
  <g clip-path="url(#clip0_131_29)">
    <g filter="url(#filter0_ddddd_131_29)">
      <rect width="567" height="337" fill="white"/>
      <rect x="0.5" y="0.5" width="566" height="336" stroke="white"/>
    </g>
    <path d="M54.5 28.7031C42.4808 28.7031 32.7031 38.4808 32.7031 50.5C32.7031 62.5192 42.4808 72.2969 54.5 72.2969C66.5192 72.2969 76.2969 62.5192 76.2969 50.5C76.2969 38.4808 66.5192 28.7031 54.5 28.7031ZM39.0312 54.0156C38.6431 54.0156 38.3281 53.7006 38.3281 53.3125V47.6875C38.3281 47.2994 38.6431 46.9844 39.0312 46.9844H69.9688C70.3569 46.9844 70.6719 47.2994 70.6719 47.6875V53.3125C70.6719 53.7006 70.3569 54.0156 69.9688 54.0156H39.0312ZM59.9443 55.4219C59.8044 57.359 59.5899 59.1379 59.3178 60.7466C57.7716 60.9414 56.1594 61.0469 54.5 61.0469C52.8406 61.0469 51.2284 60.9414 49.6829 60.7466C49.4108 59.1379 49.1963 57.359 49.0564 55.4219H59.9443ZM49.0557 45.5781C49.1956 43.641 49.4101 41.8621 49.6822 40.2534C51.2284 40.0586 52.8406 39.9531 54.5 39.9531C56.1594 39.9531 57.7716 40.0586 59.3171 40.2534C59.5899 41.8621 59.8044 43.641 59.9443 45.5781H49.0557ZM61.359 45.5781C61.2352 43.8456 61.0405 42.1187 60.7754 40.4664C62.908 40.8243 64.8887 41.3573 66.65 42.0358C66.9889 43.1622 67.2631 44.3463 67.4642 45.5781H61.359ZM60.5202 39.0145C59.8529 35.5347 58.8537 32.5091 57.534 30.6515C61.1452 31.9502 64.253 35.5122 66.0903 40.3848C64.3789 39.7921 62.5079 39.328 60.5202 39.0145V39.0145ZM59.0485 38.8105C57.5811 38.639 56.0602 38.5469 54.5 38.5469C52.9398 38.5469 51.4189 38.639 49.9508 38.8105C51.08 33.265 52.9039 30.1094 54.5 30.1094C56.0947 30.1094 57.9186 33.265 59.0485 38.8105ZM48.4791 39.0145C46.4914 39.328 44.6204 39.7928 42.909 40.3841C44.7455 35.5108 47.8527 31.9495 51.4646 30.6508C50.1448 32.5091 49.1464 35.534 48.4791 39.0145V39.0145ZM48.2246 40.4664C47.9595 42.118 47.7648 43.8449 47.641 45.5781H41.5358C41.7369 44.3463 42.0111 43.1622 42.35 42.0358C44.1113 41.3573 46.092 40.8243 48.2246 40.4664ZM40.1141 45.5781H39.0312C37.8683 45.5781 36.9219 46.5245 36.9219 47.6875V53.3125C36.9219 54.4755 37.8683 55.4219 39.0312 55.4219H40.1141C40.2652 56.3943 40.46 57.3393 40.6955 58.2534C36.6498 56.3254 34.1094 53.5635 34.1094 50.5C34.1094 47.4365 36.6498 44.6746 40.6955 42.7466C40.46 43.6607 40.2652 44.6057 40.1141 45.5781ZM41.5358 55.4219H47.641C47.7648 57.1551 47.9595 58.882 48.2246 60.5336C46.092 60.1757 44.1113 59.6427 42.35 58.9642C42.0111 57.8378 41.7369 56.6537 41.5358 55.4219ZM48.4791 61.9855C49.1464 65.466 50.1448 68.4909 51.4646 70.3492C47.8527 69.0505 44.7455 65.4892 42.909 60.6159C44.6211 61.2079 46.4921 61.672 48.4791 61.9855V61.9855ZM49.9508 62.1895C51.4189 62.361 52.9398 62.4531 54.5 62.4531C56.0602 62.4531 57.5811 62.361 59.0492 62.1895C57.92 67.735 56.0961 70.8906 54.5 70.8906C52.9039 70.8906 51.08 67.735 49.9508 62.1895V62.1895ZM60.5209 61.9855C62.5086 61.672 64.3796 61.2072 66.091 60.6159C64.2545 65.4892 61.1473 69.0505 57.5354 70.3492C58.8552 68.4909 59.8536 65.466 60.5209 61.9855V61.9855ZM60.7754 60.5336C61.0405 58.882 61.2352 57.1551 61.359 55.4219H67.4642C67.2631 56.6537 66.9889 57.8378 66.65 58.9642C64.8887 59.6427 62.908 60.1757 60.7754 60.5336V60.5336ZM68.8859 55.4219H69.9688C71.1317 55.4219 72.0781 54.4755 72.0781 53.3125V47.6875C72.0781 46.5245 71.1317 45.5781 69.9688 45.5781H68.8859C68.7341 44.6057 68.54 43.66 68.3045 42.7459C72.3502 44.6746 74.8906 47.4365 74.8906 50.5C74.8906 53.5635 72.3502 56.3254 68.3045 58.2534C68.54 57.3393 68.7348 56.3943 68.8859 55.4219ZM74.2592 45.4621C72.7763 43.7205 70.5516 42.2066 67.8066 41.043C66.4552 36.9107 64.2509 33.5399 61.5608 31.3715C67.7926 33.6791 72.5977 38.9484 74.2592 45.4621V45.4621ZM47.4343 31.3729C44.7448 33.5413 42.542 36.9114 41.192 41.043C38.4477 42.2066 36.223 43.7205 34.7408 45.4621C36.4016 38.9498 41.2053 33.682 47.4343 31.3729ZM34.7408 55.5379C36.223 57.2795 38.4484 58.7927 41.192 59.957C42.542 64.0886 44.7455 67.4587 47.4343 69.6271C41.2053 67.318 36.4016 62.0502 34.7408 55.5379ZM61.5657 69.6271C64.2552 67.4587 66.458 64.0886 67.808 59.957C70.5523 58.7934 72.777 57.2795 74.2592 55.5379C72.5984 62.0502 67.7947 67.318 61.5657 69.6271Z" fill="#142F80"/>
    <path d="M47.892 50.0156L47.4188 48.833C47.3113 48.5658 47.0532 48.3907 46.7656 48.3907C46.4781 48.3907 46.22 48.5658 46.1124 48.833L45.6392 50.0156L45.3495 48.2754L43.9623 48.506L44.6654 52.7248C44.7167 53.0355 44.9699 53.2746 45.2835 53.3084C45.602 53.3421 45.8945 53.1628 46.0119 52.8703L46.7656 50.9866L47.5187 52.8703C47.627 53.1396 47.8871 53.3126 48.1719 53.3126C48.1965 53.3126 48.2218 53.3112 48.2471 53.3084C48.5607 53.2746 48.8138 53.0355 48.8652 52.7248L49.5683 48.506L48.181 48.2754L47.892 50.0156Z" fill="#142F80"/>
    <path d="M54.2202 50.0156L53.747 48.833C53.6394 48.5658 53.3813 48.3907 53.0938 48.3907C52.8062 48.3907 52.5481 48.5658 52.4406 48.833L51.9674 50.0156L51.6777 48.2754L50.2904 48.506L50.9935 52.7248C51.0449 53.0355 51.298 53.2746 51.6116 53.3084C51.9287 53.3421 52.2226 53.1628 52.34 52.8703L53.0938 50.9866L53.8468 52.8703C53.9551 53.1396 54.2152 53.3126 54.5 53.3126C54.5246 53.3126 54.5499 53.3112 54.5752 53.3084C54.8888 53.2746 55.142 53.0355 55.1933 52.7248L55.8964 48.506L54.5092 48.2754L54.2202 50.0156Z" fill="#142F80"/>
    <path d="M60.5483 50.0156L60.0751 48.833C59.9675 48.5658 59.7095 48.3907 59.4219 48.3907C59.1343 48.3907 58.8763 48.5658 58.7687 48.833L58.2955 50.0156L58.0058 48.2754L56.6185 48.506L57.3217 52.7248C57.373 53.0355 57.6261 53.2746 57.9397 53.3084C58.2561 53.3421 58.5507 53.1628 58.6681 52.8703L59.4219 50.9866L60.1749 52.8703C60.2832 53.1396 60.5434 53.3126 60.8281 53.3126C60.8527 53.3126 60.8781 53.3112 60.9034 53.3084C61.217 53.2746 61.4701 53.0355 61.5214 52.7248L62.2245 48.506L60.8373 48.2754L60.5483 50.0156Z" fill="#142F80"/>
    <path d="M63.9922 51.2031C63.4107 51.2031 62.9375 51.6763 62.9375 52.2578C62.9375 52.8393 63.4107 53.3125 63.9922 53.3125C64.5737 53.3125 65.0469 52.8393 65.0469 52.2578C65.0469 51.6763 64.5737 51.2031 63.9922 51.2031Z" fill="#142F80"/>
    <rect x="96" y="29" width="367" height="44" rx="10" fill="#F3F3F3"/>
    <path d="M114.32 48.28C114.824 48.28 115.272 48.388 115.664 48.604C116.064 48.82 116.376 49.14 116.6 49.564C116.832 49.988 116.948 50.5 116.948 51.1V55H115.592V51.304C115.592 50.712 115.444 50.26 115.148 49.948C114.852 49.628 114.448 49.468 113.936 49.468C113.424 49.468 113.016 49.628 112.712 49.948C112.416 50.26 112.268 50.712 112.268 51.304V55H110.9V46.12H112.268V49.156C112.5 48.876 112.792 48.66 113.144 48.508C113.504 48.356 113.896 48.28 114.32 48.28ZM120.409 49.504V53.164C120.409 53.412 120.465 53.592 120.577 53.704C120.697 53.808 120.897 53.86 121.177 53.86H122.017V55H120.937C120.321 55 119.849 54.856 119.521 54.568C119.193 54.28 119.029 53.812 119.029 53.164V49.504H118.249V48.388H119.029V46.744H120.409V48.388H122.017V49.504H120.409ZM124.994 49.504V53.164C124.994 53.412 125.05 53.592 125.162 53.704C125.282 53.808 125.482 53.86 125.762 53.86H126.602V55H125.522C124.906 55 124.434 54.856 124.106 54.568C123.778 54.28 123.614 53.812 123.614 53.164V49.504H122.834V48.388H123.614V46.744H124.994V48.388H126.602V49.504H124.994ZM129.351 49.36C129.583 49.056 129.899 48.8 130.299 48.592C130.699 48.384 131.151 48.28 131.655 48.28C132.231 48.28 132.755 48.424 133.227 48.712C133.707 48.992 134.083 49.388 134.355 49.9C134.627 50.412 134.763 51 134.763 51.664C134.763 52.328 134.627 52.924 134.355 53.452C134.083 53.972 133.707 54.38 133.227 54.676C132.755 54.964 132.231 55.108 131.655 55.108C131.151 55.108 130.703 55.008 130.311 54.808C129.919 54.6 129.599 54.344 129.351 54.04V58.144H127.983V48.388H129.351V49.36ZM133.371 51.664C133.371 51.208 133.275 50.816 133.083 50.488C132.899 50.152 132.651 49.9 132.339 49.732C132.035 49.556 131.707 49.468 131.355 49.468C131.011 49.468 130.683 49.556 130.371 49.732C130.067 49.908 129.819 50.164 129.627 50.5C129.443 50.836 129.351 51.232 129.351 51.688C129.351 52.144 129.443 52.544 129.627 52.888C129.819 53.224 130.067 53.48 130.371 53.656C130.683 53.832 131.011 53.92 131.355 53.92C131.707 53.92 132.035 53.832 132.339 53.656C132.651 53.472 132.899 53.208 133.083 52.864C133.275 52.52 133.371 52.12 133.371 51.664ZM138.635 55.108C138.115 55.108 137.647 55.016 137.231 54.832C136.823 54.64 136.499 54.384 136.259 54.064C136.019 53.736 135.891 53.372 135.875 52.972H137.291C137.315 53.252 137.447 53.488 137.687 53.68C137.935 53.864 138.243 53.956 138.611 53.956C138.995 53.956 139.291 53.884 139.499 53.74C139.715 53.588 139.823 53.396 139.823 53.164C139.823 52.916 139.703 52.732 139.463 52.612C139.231 52.492 138.859 52.36 138.347 52.216C137.851 52.08 137.447 51.948 137.135 51.82C136.823 51.692 136.551 51.496 136.319 51.232C136.095 50.968 135.983 50.62 135.983 50.188C135.983 49.836 136.087 49.516 136.295 49.228C136.503 48.932 136.799 48.7 137.183 48.532C137.575 48.364 138.023 48.28 138.527 48.28C139.279 48.28 139.883 48.472 140.339 48.856C140.803 49.232 141.051 49.748 141.083 50.404H139.715C139.691 50.108 139.571 49.872 139.355 49.696C139.139 49.52 138.847 49.432 138.479 49.432C138.119 49.432 137.843 49.5 137.651 49.636C137.459 49.772 137.363 49.952 137.363 50.176C137.363 50.352 137.427 50.5 137.555 50.62C137.683 50.74 137.839 50.836 138.023 50.908C138.207 50.972 138.479 51.056 138.839 51.16C139.319 51.288 139.711 51.42 140.015 51.556C140.327 51.684 140.595 51.876 140.819 52.132C141.043 52.388 141.159 52.728 141.167 53.152C141.167 53.528 141.063 53.864 140.855 54.16C140.647 54.456 140.351 54.688 139.967 54.856C139.591 55.024 139.147 55.108 138.635 55.108ZM143.318 55.084C143.07 55.084 142.862 55 142.694 54.832C142.526 54.664 142.442 54.456 142.442 54.208C142.442 53.96 142.526 53.752 142.694 53.584C142.862 53.416 143.07 53.332 143.318 53.332C143.558 53.332 143.762 53.416 143.93 53.584C144.098 53.752 144.182 53.96 144.182 54.208C144.182 54.456 144.098 54.664 143.93 54.832C143.762 55 143.558 55.084 143.318 55.084ZM143.318 50.044C143.07 50.044 142.862 49.96 142.694 49.792C142.526 49.624 142.442 49.416 142.442 49.168C142.442 48.92 142.526 48.712 142.694 48.544C142.862 48.376 143.07 48.292 143.318 48.292C143.558 48.292 143.762 48.376 143.93 48.544C144.098 48.712 144.182 48.92 144.182 49.168C144.182 49.416 144.098 49.624 143.93 49.792C143.762 49.96 143.558 50.044 143.318 50.044ZM150.267 43.672L147.003 57.1H145.659L148.911 43.672H150.267ZM156.551 43.672L153.287 57.1H151.943L155.195 43.672H156.551ZM164.347 48.388L160.291 58.108H158.875L160.219 54.892L157.615 48.388H159.139L160.999 53.428L162.931 48.388H164.347ZM168.368 55.108C167.744 55.108 167.18 54.968 166.676 54.688C166.172 54.4 165.776 54 165.488 53.488C165.2 52.968 165.056 52.368 165.056 51.688C165.056 51.016 165.204 50.42 165.5 49.9C165.796 49.38 166.2 48.98 166.712 48.7C167.224 48.42 167.796 48.28 168.428 48.28C169.06 48.28 169.632 48.42 170.144 48.7C170.656 48.98 171.06 49.38 171.356 49.9C171.652 50.42 171.8 51.016 171.8 51.688C171.8 52.36 171.648 52.956 171.344 53.476C171.04 53.996 170.624 54.4 170.096 54.688C169.576 54.968 169 55.108 168.368 55.108ZM168.368 53.92C168.72 53.92 169.048 53.836 169.352 53.668C169.664 53.5 169.916 53.248 170.108 52.912C170.3 52.576 170.396 52.168 170.396 51.688C170.396 51.208 170.304 50.804 170.12 50.476C169.936 50.14 169.692 49.888 169.388 49.72C169.084 49.552 168.756 49.468 168.404 49.468C168.052 49.468 167.724 49.552 167.42 49.72C167.124 49.888 166.888 50.14 166.712 50.476C166.536 50.804 166.448 51.208 166.448 51.688C166.448 52.4 166.628 52.952 166.988 53.344C167.356 53.728 167.816 53.92 168.368 53.92ZM179.26 48.388V55H177.892V54.22C177.676 54.492 177.392 54.708 177.04 54.868C176.696 55.02 176.328 55.096 175.936 55.096C175.416 55.096 174.948 54.988 174.532 54.772C174.124 54.556 173.8 54.236 173.56 53.812C173.328 53.388 173.212 52.876 173.212 52.276V48.388H174.568V52.072C174.568 52.664 174.716 53.12 175.012 53.44C175.308 53.752 175.712 53.908 176.224 53.908C176.736 53.908 177.14 53.752 177.436 53.44C177.74 53.12 177.892 52.664 177.892 52.072V48.388H179.26ZM182.553 49.348C182.753 49.012 183.017 48.752 183.345 48.568C183.681 48.376 184.077 48.28 184.533 48.28V49.696H184.185C183.649 49.696 183.241 49.832 182.961 50.104C182.689 50.376 182.553 50.848 182.553 51.52V55H181.185V48.388H182.553V49.348ZM190.986 50.08V51.232H186.054V50.08H190.986ZM195.45 55.108C194.93 55.108 194.462 55.016 194.046 54.832C193.638 54.64 193.314 54.384 193.074 54.064C192.834 53.736 192.706 53.372 192.69 52.972H194.106C194.13 53.252 194.262 53.488 194.502 53.68C194.75 53.864 195.058 53.956 195.426 53.956C195.81 53.956 196.106 53.884 196.314 53.74C196.53 53.588 196.638 53.396 196.638 53.164C196.638 52.916 196.518 52.732 196.278 52.612C196.046 52.492 195.674 52.36 195.162 52.216C194.666 52.08 194.262 51.948 193.95 51.82C193.638 51.692 193.366 51.496 193.134 51.232C192.91 50.968 192.798 50.62 192.798 50.188C192.798 49.836 192.902 49.516 193.11 49.228C193.318 48.932 193.614 48.7 193.998 48.532C194.39 48.364 194.838 48.28 195.342 48.28C196.094 48.28 196.698 48.472 197.154 48.856C197.618 49.232 197.866 49.748 197.898 50.404H196.53C196.506 50.108 196.386 49.872 196.17 49.696C195.954 49.52 195.662 49.432 195.294 49.432C194.934 49.432 194.658 49.5 194.466 49.636C194.274 49.772 194.178 49.952 194.178 50.176C194.178 50.352 194.242 50.5 194.37 50.62C194.498 50.74 194.654 50.836 194.838 50.908C195.022 50.972 195.294 51.056 195.654 51.16C196.134 51.288 196.526 51.42 196.83 51.556C197.142 51.684 197.41 51.876 197.634 52.132C197.858 52.388 197.974 52.728 197.982 53.152C197.982 53.528 197.878 53.864 197.67 54.16C197.462 54.456 197.166 54.688 196.782 54.856C196.406 55.024 195.962 55.108 195.45 55.108ZM200.276 47.512C200.028 47.512 199.82 47.428 199.652 47.26C199.484 47.092 199.4 46.884 199.4 46.636C199.4 46.388 199.484 46.18 199.652 46.012C199.82 45.844 200.028 45.76 200.276 45.76C200.516 45.76 200.72 45.844 200.888 46.012C201.056 46.18 201.14 46.388 201.14 46.636C201.14 46.884 201.056 47.092 200.888 47.26C200.72 47.428 200.516 47.512 200.276 47.512ZM200.948 48.388V55H199.58V48.388H200.948ZM204.46 49.504V53.164C204.46 53.412 204.516 53.592 204.628 53.704C204.748 53.808 204.948 53.86 205.228 53.86H206.068V55H204.988C204.372 55 203.9 54.856 203.572 54.568C203.244 54.28 203.08 53.812 203.08 53.164V49.504H202.3V48.388H203.08V46.744H204.46V48.388H206.068V49.504H204.46ZM213.509 51.532C213.509 51.78 213.493 52.004 213.461 52.204H208.409C208.449 52.732 208.645 53.156 208.997 53.476C209.349 53.796 209.781 53.956 210.293 53.956C211.029 53.956 211.549 53.648 211.853 53.032H213.329C213.129 53.64 212.765 54.14 212.237 54.532C211.717 54.916 211.069 55.108 210.293 55.108C209.661 55.108 209.093 54.968 208.589 54.688C208.093 54.4 207.701 54 207.413 53.488C207.133 52.968 206.993 52.368 206.993 51.688C206.993 51.008 207.129 50.412 207.401 49.9C207.681 49.38 208.069 48.98 208.565 48.7C209.069 48.42 209.645 48.28 210.293 48.28C210.917 48.28 211.473 48.416 211.961 48.688C212.449 48.96 212.829 49.344 213.101 49.84C213.373 50.328 213.509 50.892 213.509 51.532ZM212.081 51.1C212.073 50.596 211.893 50.192 211.541 49.888C211.189 49.584 210.753 49.432 210.233 49.432C209.761 49.432 209.357 49.584 209.021 49.888C208.685 50.184 208.485 50.588 208.421 51.1H212.081ZM215.527 55.084C215.279 55.084 215.071 55 214.903 54.832C214.735 54.664 214.651 54.456 214.651 54.208C214.651 53.96 214.735 53.752 214.903 53.584C215.071 53.416 215.279 53.332 215.527 53.332C215.767 53.332 215.971 53.416 216.139 53.584C216.307 53.752 216.391 53.96 216.391 54.208C216.391 54.456 216.307 54.664 216.139 54.832C215.971 55 215.767 55.084 215.527 55.084ZM217.534 51.688C217.534 51.008 217.67 50.412 217.942 49.9C218.222 49.38 218.606 48.98 219.094 48.7C219.582 48.42 220.142 48.28 220.774 48.28C221.574 48.28 222.234 48.472 222.754 48.856C223.282 49.232 223.638 49.772 223.822 50.476H222.346C222.226 50.148 222.034 49.892 221.77 49.708C221.506 49.524 221.174 49.432 220.774 49.432C220.214 49.432 219.766 49.632 219.43 50.032C219.102 50.424 218.938 50.976 218.938 51.688C218.938 52.4 219.102 52.956 219.43 53.356C219.766 53.756 220.214 53.956 220.774 53.956C221.566 53.956 222.09 53.608 222.346 52.912H223.822C223.63 53.584 223.27 54.12 222.742 54.52C222.214 54.912 221.558 55.108 220.774 55.108C220.142 55.108 219.582 54.968 219.094 54.688C218.606 54.4 218.222 54 217.942 53.488C217.67 52.968 217.534 52.368 217.534 51.688ZM228.173 55.108C227.549 55.108 226.985 54.968 226.481 54.688C225.977 54.4 225.581 54 225.293 53.488C225.005 52.968 224.861 52.368 224.861 51.688C224.861 51.016 225.009 50.42 225.305 49.9C225.601 49.38 226.005 48.98 226.517 48.7C227.029 48.42 227.601 48.28 228.233 48.28C228.865 48.28 229.437 48.42 229.949 48.7C230.461 48.98 230.865 49.38 231.161 49.9C231.457 50.42 231.605 51.016 231.605 51.688C231.605 52.36 231.453 52.956 231.149 53.476C230.845 53.996 230.429 54.4 229.901 54.688C229.381 54.968 228.805 55.108 228.173 55.108ZM228.173 53.92C228.525 53.92 228.853 53.836 229.157 53.668C229.469 53.5 229.721 53.248 229.913 52.912C230.105 52.576 230.201 52.168 230.201 51.688C230.201 51.208 230.109 50.804 229.925 50.476C229.741 50.14 229.497 49.888 229.193 49.72C228.889 49.552 228.561 49.468 228.209 49.468C227.857 49.468 227.529 49.552 227.225 49.72C226.929 49.888 226.693 50.14 226.517 50.476C226.341 50.804 226.253 51.208 226.253 51.688C226.253 52.4 226.433 52.952 226.793 53.344C227.161 53.728 227.621 53.92 228.173 53.92ZM241.081 48.28C241.601 48.28 242.065 48.388 242.473 48.604C242.889 48.82 243.213 49.14 243.445 49.564C243.685 49.988 243.805 50.5 243.805 51.1V55H242.449V51.304C242.449 50.712 242.301 50.26 242.005 49.948C241.709 49.628 241.305 49.468 240.793 49.468C240.281 49.468 239.873 49.628 239.569 49.948C239.273 50.26 239.125 50.712 239.125 51.304V55H237.769V51.304C237.769 50.712 237.621 50.26 237.325 49.948C237.029 49.628 236.625 49.468 236.113 49.468C235.601 49.468 235.193 49.628 234.889 49.948C234.593 50.26 234.445 50.712 234.445 51.304V55H233.077V48.388H234.445V49.144C234.669 48.872 234.953 48.66 235.297 48.508C235.641 48.356 236.009 48.28 236.401 48.28C236.929 48.28 237.401 48.392 237.817 48.616C238.233 48.84 238.553 49.164 238.777 49.588C238.977 49.188 239.289 48.872 239.713 48.64C240.137 48.4 240.593 48.28 241.081 48.28Z" fill="#142F80"/>
    <rect x="76" y="100" width="88" height="88" rx="5" fill="#D0D0D0"/>
    <rect x="185" y="100" width="88" height="88" rx="5" fill="#D0D0D0"/>
    <rect x="294" y="100" width="88" height="88" rx="5" fill="#D0D0D0"/>
    <rect x="403" y="100" width="88" height="88" rx="5" fill="#D0D0D0"/>
    <rect x="185" y="209" width="88" height="88" rx="5" fill="#D0D0D0"/>
    <rect x="294" y="209" width="88" height="88" rx="5" fill="#D0D0D0"/>
    <rect x="403" y="209" width="88" height="88" rx="5" fill="#D0D0D0"/>
  </g>
  <defs>
    <filter id="filter0_ddddd_131_29" x="-149.336" y="-115.944" width="893" height="663" filterUnits="userSpaceOnUse" color-interpolation-filters="sRGB">
      <feFlood flood-opacity="0" result="BackgroundImageFix"/>
      <feColorMatrix in="SourceAlpha" type="matrix" values="0 0 0 0 0 0 0 0 0 0 0 0 0 0 0 0 0 0 127 0" result="hardAlpha"/>
      <feOffset dx="0.371648" dy="1.27994"/>
      <feGaussianBlur stdDeviation="3.7816"/>
      <feColorMatrix type="matrix" values="0 0 0 0 0 0 0 0 0 0 0 0 0 0 0 0 0 0 0.016608 0"/>
      <feBlend mode="normal" in2="BackgroundImageFix" result="effect1_dropShadow_131_29"/>
      <feColorMatrix in="SourceAlpha" type="matrix" values="0 0 0 0 0 0 0 0 0 0 0 0 0 0 0 0 0 0 127 0" result="hardAlpha"/>
      <feOffset dx="1.66148" dy="5.72206"/>
      <feGaussianBlur stdDeviation="8.7368"/>
      <feColorMatrix type="matrix" values="0 0 0 0 0 0 0 0 0 0 0 0 0 0 0 0 0 0 0.026304 0"/>
      <feBlend mode="normal" in2="effect1_dropShadow_131_29" result="effect2_dropShadow_131_29"/>
      <feColorMatrix in="SourceAlpha" type="matrix" values="0 0 0 0 0 0 0 0 0 0 0 0 0 0 0 0 0 0 127 0" result="hardAlpha"/>
      <feOffset dx="4.13185" dy="14.2299"/>
      <feGaussianBlur stdDeviation="19.9512"/>
      <feColorMatrix type="matrix" values="0 0 0 0 0 0 0 0 0 0 0 0 0 0 0 0 0 0 0.033696 0"/>
      <feBlend mode="normal" in2="effect2_dropShadow_131_29" result="effect3_dropShadow_131_29"/>
      <feColorMatrix in="SourceAlpha" type="matrix" values="0 0 0 0 0 0 0 0 0 0 0 0 0 0 0 0 0 0 127 0" result="hardAlpha"/>
      <feOffset dx="8.04508" dy="27.7068"/>
      <feGaussianBlur stdDeviation="42.5104"/>
      <feColorMatrix type="matrix" values="0 0 0 0 0 0 0 0 0 0 0 0 0 0 0 0 0 0 0.043392 0"/>
      <feBlend mode="normal" in2="effect3_dropShadow_131_29" result="effect4_dropShadow_131_29"/>
      <feColorMatrix in="SourceAlpha" type="matrix" values="0 0 0 0 0 0 0 0 0 0 0 0 0 0 0 0 0 0 127 0" result="hardAlpha"/>
      <feOffset dx="13.6635" dy="47.0564"/>
      <feGaussianBlur stdDeviation="81.5"/>
      <feColorMatrix type="matrix" values="0 0 0 0 0 0 0 0 0 0 0 0 0 0 0 0 0 0 0.06 0"/>
      <feBlend mode="normal" in2="effect4_dropShadow_131_29" result="effect5_dropShadow_131_29"/>
      <feBlend mode="normal" in="SourceGraphic" in2="effect5_dropShadow_131_29" result="shape"/>
    </filter>
    <clipPath id="clip0_131_29">
      <rect width="567" height="337" fill="white"/>
    </clipPath>
  </defs>
</svg>
